<svg xmlns="http://www.w3.org/2000/svg" width="20" height="20" viewBox="0 0 20 20"><title>assets</title><path d="M15.454,10.638A4.547,4.547,0,0,1,17.62,6.823a4.656,4.656,0,0,0-3.666-1.982c-1.543-.162-3.038.923-3.825.923s-2.011-.907-3.314-.883A4.882,4.882,0,0,0,2.706,7.387c-1.776,3.076-.451,7.6,1.251,10.083C4.809,18.687,5.8,20.047,7.106,20c1.273-.053,1.75-.813,3.288-.813,1.523,0,1.969.813,3.3.782,1.368-.022,2.229-1.223,3.05-2.452a10.071,10.071,0,0,0,1.395-2.841A4.393,4.393,0,0,1,15.454,10.638Z"/><path d="M12.942,3.207A4.475,4.475,0,0,0,13.966,0,4.552,4.552,0,0,0,11.02,1.525,4.261,4.261,0,0,0,9.969,4.617,3.77,3.77,0,0,0,12.942,3.207Z"/></svg>