<svg width="452" height="106" viewBox="0 0 452 106" fill="none" xmlns="http://www.w3.org/2000/svg">
<path d="M11.534 104.017V24.8362C11.534 16.8826 13.85 10.7952 18.4821 6.57397C23.1606 2.35278 29.5066 0.242188 37.5201 0.242188C39.1414 0.242188 40.7394 0.353271 42.3144 0.575439C43.8893 0.753174 45.4179 1.01978 46.9001 1.37524L46.4138 13.439C45.4874 13.2612 44.4451 13.1279 43.2871 13.0391C42.1754 12.9502 41.0174 12.9058 39.813 12.9058C35.922 12.9058 32.888 13.9277 30.7109 15.9717C28.5801 18.0156 27.5148 20.9705 27.5148 24.8362V104.017H11.534ZM43.0787 43.2317H0V31.9011H43.0787V43.2317Z" fill="white"/>
<path d="M99.948 55.0955C99.948 51.1853 98.79 48.0749 96.4739 45.7644C94.2042 43.4539 90.7533 42.2986 86.1212 42.2986C83.3419 42.2986 80.91 42.7651 78.8256 43.6982C76.7411 44.5869 75.1199 45.8088 73.9619 47.364C72.8502 48.8748 72.2943 50.6077 72.2943 52.5627H56.3135C56.3135 48.7859 57.5642 45.2312 60.0655 41.8987C62.6132 38.5662 66.1799 35.8557 70.7657 33.7673C75.3978 31.6345 80.8174 30.5681 87.0244 30.5681C92.6293 30.5681 97.6088 31.479 101.963 33.3008C106.317 35.1226 109.722 37.8552 112.177 41.4988C114.678 45.1423 115.929 49.719 115.929 55.2288V87.5542C115.929 90.6201 116.16 93.4639 116.624 96.0854C117.133 98.707 117.851 100.995 118.778 102.95V104.017H102.38C101.592 102.373 100.99 100.24 100.573 97.6184C100.156 94.9524 99.948 92.3975 99.948 89.9536V55.0955ZM102.519 69.8918H90.429C83.9441 69.8918 79.0109 70.9805 75.6294 73.1577C72.2943 75.335 70.6268 78.3787 70.6268 82.2888C70.6268 85.3103 71.6921 87.843 73.8229 89.887C76 91.9309 79.0804 92.9529 83.064 92.9529C86.6307 92.9529 89.7342 92.2642 92.3745 90.8867C95.0611 89.4648 97.1688 87.7319 98.6974 85.688C100.226 83.644 101.037 81.689 101.129 79.8227L106.618 86.7544C106.155 88.6206 105.229 90.6201 103.839 92.7529C102.496 94.8857 100.712 96.9075 98.4889 98.8181C96.3118 100.684 93.6947 102.239 90.6375 103.484C87.5803 104.728 84.083 105.35 80.1457 105.35C75.1894 105.35 70.7889 104.417 66.9442 102.551C63.0996 100.684 60.0887 98.1294 57.9116 94.8857C55.7345 91.5976 54.646 87.9319 54.646 83.8884C54.646 76.2014 57.6568 70.3362 63.6786 66.2927C69.7003 62.2048 78.1076 60.1609 88.9004 60.1609H102.38L102.519 69.8918Z" fill="white"/>
<path d="M152.649 104.017H136.668V31.9011H152.649V104.017ZM135.556 12.9058C135.556 10.5952 136.343 8.64014 137.918 7.04053C139.54 5.44092 141.786 4.64111 144.658 4.64111C147.576 4.64111 149.846 5.44092 151.467 7.04053C153.089 8.64014 153.899 10.5952 153.899 12.9058C153.899 15.2163 153.089 17.1714 151.467 18.771C149.846 20.3262 147.576 21.1038 144.658 21.1038C141.786 21.1038 139.54 20.3262 137.918 18.771C136.343 17.1714 135.556 15.2163 135.556 12.9058Z" fill="white"/>
<path d="M206.808 43.2317H164.702V31.9011H206.808V43.2317ZM193.259 14.3054V84.4216C193.259 86.7322 193.607 88.4651 194.301 89.6204C194.996 90.7756 195.946 91.5532 197.15 91.9531C198.354 92.353 199.744 92.553 201.319 92.553C202.431 92.553 203.542 92.4863 204.654 92.353C205.766 92.2197 206.623 92.0864 207.225 91.9531V103.817C205.974 104.261 204.446 104.617 202.639 104.883C200.879 105.194 198.795 105.35 196.386 105.35C192.773 105.35 189.507 104.706 186.589 103.417C183.717 102.128 181.447 100.018 179.78 97.0852C178.112 94.1081 177.278 90.1536 177.278 85.2214V14.3054H193.259Z" fill="white"/>
<path d="M237.413 104.017H221.433V1.64185H237.413V104.017ZM228.867 65.293C228.96 58.6279 230.234 52.696 232.689 47.4973C235.144 42.2541 238.595 38.1218 243.041 35.1003C247.535 32.0789 252.746 30.5681 258.675 30.5681C263.631 30.5681 267.916 31.4568 271.529 33.2341C275.188 35.0115 278.014 37.8774 280.006 41.832C282.044 45.7422 283.063 50.9631 283.063 57.4949V104.017H267.082V57.3616C267.082 53.8957 266.549 51.1186 265.484 49.0303C264.465 46.9419 262.913 45.4311 260.829 44.498C258.791 43.5649 256.312 43.0984 253.394 43.0984C250.337 43.0984 247.627 43.676 245.265 44.8313C242.949 45.9866 240.957 47.6084 239.289 49.6968C237.668 51.7407 236.441 54.0957 235.607 56.7617C234.819 59.4277 234.426 62.2715 234.426 65.293H228.867Z" fill="white"/>
<path d="M307.987 104.017V24.8362C307.987 16.8826 310.303 10.7952 314.935 6.57397C319.614 2.35278 325.96 0.242188 333.973 0.242188C335.594 0.242188 337.193 0.353271 338.767 0.575439C340.342 0.753174 341.871 1.01978 343.353 1.37524L342.867 13.439C341.94 13.2612 340.898 13.1279 339.74 13.0391C338.629 12.9502 337.47 12.9058 336.266 12.9058C332.375 12.9058 329.341 13.9277 327.164 15.9717C325.033 18.0156 323.968 20.9705 323.968 24.8362V104.017H307.987ZM339.532 43.2317H296.453V31.9011H339.532V43.2317Z" fill="#00BBFF"/>
<path d="M398.902 31.9011H414.883V104.017H399.806L398.902 87.0876V31.9011ZM406.962 71.8913C406.962 78.2898 405.99 84.0217 404.044 89.0872C402.099 94.1081 398.995 98.085 394.734 101.018C390.472 103.906 384.914 105.35 378.058 105.35C370.647 105.35 364.648 103.261 360.062 99.0847C355.523 94.908 353.253 88.043 353.253 78.4897V31.9011H369.234V78.623C369.234 82.2666 369.79 85.1326 370.901 87.2209C372.059 89.2649 373.588 90.709 375.487 91.5532C377.386 92.353 379.448 92.7529 381.671 92.7529C386.581 92.7529 390.472 91.842 393.344 90.0203C396.216 88.1985 398.254 85.7102 399.458 82.5554C400.709 79.4006 401.334 75.8904 401.334 72.0247L406.962 71.8913Z" fill="#00BBFF"/>
<path d="M451.047 104.017H435.066V1.64185H451.047V104.017Z" fill="#00BBFF"/>
</svg>
